<?xml version="1.0" encoding="utf-8"?>
<!-- Generator: Adobe Illustrator 15.0.0, SVG Export Plug-In  -->
<!DOCTYPE svg PUBLIC "-//W3C//DTD SVG 1.1//EN" "http://www.w3.org/Graphics/SVG/1.1/DTD/svg11.dtd" [
	<!ENTITY ns_flows "http://ns.adobe.com/Flows/1.0/">
]>
<svg version="1.1"
	 xmlns="http://www.w3.org/2000/svg" xmlns:xlink="http://www.w3.org/1999/xlink" xmlns:a="http://ns.adobe.com/AdobeSVGViewerExtensions/3.0/"
	 x="0px" y="0px" width="595px" height="842px" viewBox="-2.2949219 -150.4179688 595 842"
	 enable-background="new -2.2949219 -150.4179688 595 842" xml:space="preserve">
<defs>
</defs>
<path fill="#E0040B" d="M580.4814453,10.2587891v280.984375L401.9863281,588.1767578h-106.190918h-0.8544922H188.7509766
	L10.2592773,291.2431641V10.2587891h160.7211914v87.2021484v10.2568359h10.2587891h108.5708008h11.1157227h108.5712891h10.2597656
	V97.4609375V10.2587891H580.4814453 M590.7392578,0H409.4970703v97.4609375H300.9257813h-11.1157227H181.2392578V0H0v294.0898438
	l182.9472656,304.3457031H294.940918h0.8544922h111.9946289l182.9492188-304.3457031V0L590.7392578,0z"/>
<path fill="#E0040B" d="M552.6025391,37.1884766v255.7548828L389.8115234,561.2480469H200.9536133L38.1381836,290.4023438
	V37.1884766h109.2841797v83.9746094v10.2592773h10.2587891h277.9389648h10.2607422v-10.2592773V37.1884766H552.6025391
	 M562.8583984,26.9306641H435.6201172v94.2324219H157.6811523V26.9306641H27.8793945v266.3173828l167.2709961,278.2597656
	h200.4384766l167.2695313-275.6933594V26.9306641L562.8583984,26.9306641z"/>
<path fill="#E0040B" d="M125.453125,358.7451172l10.9248047-6.7080078l38.3232422,62.4042969l-10.9243164,6.7109375
	L125.453125,358.7451172z"/>
<path fill="#E0040B" d="M215.0566406,303.7197266l11.6254883-7.1376953l62.3583984,47.6455078l-11.7094727,7.1943359l-16-12.9257813
	l-24.9116211,15.2988281l4.2895508,20.1171875l-11.2763672,6.9228516L215.0566406,303.7197266z M234.2905273,343.6669922
	l19.0551758-11.7021484l-25.831543-21.0917969l-0.2612305,0.1630859L234.2905273,343.6669922z"/>
<path fill="#E0040B" d="M359.5927734,242.2871094c-6.2363281-6.0415039-14.0908203-8.440918-23.1826172-2.8574219
	c-13.3701172,8.2128906-11.71875,23.4443359-4.3632813,35.4199219c7.3505859,11.9775391,20.1923828,20.3427734,33.5625,12.1298828
	c9.703125-5.9589844,10.5820313-16.4873047,5.875-26.1142578l10.6611328-6.5478516
	c8.3066406,15.4824219,4.0605469,32.2910156-11.0595703,41.5771484
	c-18.7070313,11.4853516-39.0205078,3.4980469-49.96875-14.3349609
	c-10.9462891-17.828125-8.8857422-39.5600586,9.8183594-51.0454102c14.1289063-8.5556641,30.0029297-7.5913086,39.5820313,5.0639648
	L359.5927734,242.2871094z"/>
<path fill="#E0040B" d="M471.3164063,173.6801758c-6.2363281-6.0415039-14.0908203-8.440918-23.1816406-2.8569336
	c-13.3710938,8.2114258-11.7226563,23.4443359-4.3681641,35.4199219s20.1962891,20.3408203,33.5664063,12.1293945
	c9.703125-5.9584961,10.5791016-16.487793,5.8730469-26.1142578l10.6630859-6.5473633
	c8.3066406,15.4814453,4.0634766,32.2915039-11.0595703,41.5771484
	c-18.7070313,11.4853516-39.0166016,3.4960938-49.96875-14.3354492
	c-10.9482422-17.8286133-8.8857422-39.559082,9.8173828-51.0463867c14.1279297-8.5541992,30.0039063-7.5917969,39.5830078,5.0634766
	L471.3164063,173.6801758z"/>
<circle fill="#E0040B" cx="189.9851074" cy="396.0976563" r="8.817627"/>
<path fill="#E0040B" d="M305.5488281,331.1230469c0,4.8691406-3.9511719,8.8193359-8.8183594,8.8193359
	c-4.8696289,0-8.8173828-3.9501953-8.8173828-8.8193359c0-4.8701172,3.9477539-8.8173828,8.8173828-8.8173828
	C301.5976563,322.3056641,305.5488281,326.2529297,305.5488281,331.1230469z"/>
<circle fill="#E0040B" cx="408.1186523" cy="262.4316406" r="8.8178711"/>
<path fill="#E0040B" d="M529.2529297,192.815918c0,4.8691406-3.9501953,8.8193359-8.8173828,8.8193359
	c-4.8701172,0-8.8183594-3.9501953-8.8183594-8.8193359c0-4.8720703,3.9482422-8.8198242,8.8183594-8.8198242
	C525.3027344,183.9960938,529.2529297,187.9438477,529.2529297,192.815918z"/>
<polygon fill="#E0040B" points="534.7460938,77.2861328 534.7460938,26.9306641 461.2236328,26.9306641 461.2236328,122.7768555 "/>
<polygon fill="#E0040B" points="461.2236328,263.9892578 461.2236328,463.328125 534.7460938,342.1513672 534.7460938,218.4995117 
	"/>
<polygon fill="#E0040B" points="400.5224609,160.3344727 400.5224609,121.1630859 327,121.1630859 327,205.8237305 "/>
<polygon fill="#E0040B" points="327,347.0419922 327,571.5078125 395.5888672,571.5078125 400.5224609,563.3740234 
	400.5224609,301.5478516 "/>
<polygon fill="#E0040B" points="263.7368164,244.96875 263.7368164,121.1630859 190.2172852,121.1630859 190.2172852,290.4589844 
	"/>
<polygon fill="#E0040B" points="190.2172852,431.6738281 190.2172852,563.2988281 195.1503906,571.5078125 263.7368164,571.5078125 
	263.7368164,386.1826172 "/>
<polygon fill="#E0040B" points="129.5161133,328.015625 129.5161133,26.9306641 55.9936523,26.9306641 55.9936523,340.0175781 
	70.6679688,364.4277344 "/>
<polygon fill="#E0040B" points="75.8530273,373.0527344 562.8583984,71.7260742 562.8583984,59.8920898 70.6679688,364.4277344 "/>
<polygon fill="#E0040B" points="562.8583984,189.2685547 127.359375,458.7324219 132.543457,467.3574219 562.8583984,201.1044922 
	"/>
</svg>
